
<svg version="1.0" xmlns="http://www.w3.org/2000/svg"
 width="1300.000000pt" height="1300.000000pt" viewBox="0 0 1300.000000 1300.000000"
 preserveAspectRatio="xMidYMid meet">

<g transform="translate(0.000000,1300.000000) scale(0.100000,-0.100000)"
fill="#000000" stroke="none">
<path d="M9199 12405 c-184 -30 -406 -100 -528 -166 -50 -26 -63 -29 -151 -29
-473 0 -819 -212 -1025 -628 -112 -227 -175 -464 -210 -799 -19 -182 -19 -688
0 -928 35 -432 122 -948 239 -1419 25 -99 43 -183 40 -187 -2 -4 -26 -11 -52
-14 -154 -21 -221 -44 -307 -109 -134 -100 -414 -377 -631 -622 -34 -38 -73
-81 -85 -95 -185 -203 -221 -269 -239 -429 -6 -47 -15 -128 -21 -180 -15 -131
-70 -316 -126 -421 -70 -134 -209 -294 -341 -396 -83 -64 -139 -103 -149 -103
-6 0 -13 -4 -15 -8 -11 -27 -255 -152 -296 -152 -37 0 -33 -17 8 -35 32 -14
39 -22 35 -39 -3 -12 -12 -57 -21 -100 -66 -333 -268 -599 -510 -675 -60 -19
-64 -19 -130 -2 -247 65 -418 203 -527 427 -76 155 -106 285 -114 492 l-6 152
-27 0 c-15 0 -72 -14 -126 -30 -100 -31 -241 -53 -414 -65 -204 -14 -481 -82
-654 -160 -169 -76 -294 -201 -452 -453 -21 -35 -67 -105 -101 -155 -67 -98
-139 -216 -149 -241 -4 -10 55 -78 187 -213 421 -431 391 -403 431 -403 30 0
44 8 77 42 23 22 41 39 41 37 1 -2 3 -40 6 -84 3 -44 10 -105 17 -135 l12 -54
135 -18 c194 -25 429 -74 595 -125 36 -11 87 -17 130 -17 118 3 526 104 629
156 35 18 44 19 80 8 23 -6 69 -27 104 -46 l62 -34 -16 32 -16 31 37 -6 c61
-10 128 -49 149 -87 13 -22 20 -54 21 -90 1 -45 7 -66 32 -106 17 -27 37 -61
44 -76 14 -32 14 -32 211 -48 260 -20 609 -94 862 -182 l119 -41 64 34 c44 23
83 56 126 104 33 39 130 139 213 224 107 109 157 166 168 195 9 23 16 44 16
46 0 3 -132 7 -292 9 -161 1 -294 4 -294 4 -1 1 11 79 26 172 43 256 56 461
42 629 -20 226 -76 450 -143 576 l-29 54 22 21 c22 20 457 408 527 470 19 16
46 41 60 54 14 12 57 51 96 85 38 33 97 86 130 116 33 30 94 84 134 120 41 36
97 86 125 111 133 120 154 132 122 72 -28 -55 -49 -189 -44 -287 6 -108 2 -97
206 -536 55 -118 117 -248 136 -287 20 -40 38 -84 42 -98 3 -14 10 -28 15 -31
5 -3 21 -31 35 -62 45 -101 79 -167 87 -173 16 -12 29 -164 22 -264 -8 -129
-31 -307 -53 -418 -10 -48 -16 -89 -14 -92 17 -17 582 66 952 139 309 62 687
143 885 191 210 50 514 124 550 133 25 7 33 18 58 82 124 327 287 1050 287
1277 0 24 4 43 9 43 21 0 72 -68 119 -158 49 -94 134 -300 154 -372 6 -19 16
-48 23 -65 13 -30 33 -93 101 -310 20 -66 38 -121 39 -123 1 -1 40 -12 86 -23
46 -12 85 -25 87 -30 2 -5 12 -9 22 -9 35 0 179 -93 264 -170 17 -16 67 -52
111 -81 44 -28 82 -54 85 -58 3 -3 37 -27 75 -53 39 -26 100 -71 137 -100 37
-29 83 -64 102 -78 19 -14 45 -42 58 -62 13 -21 27 -38 32 -38 12 0 -1 405
-19 584 -37 364 -92 617 -194 891 -47 124 -172 507 -187 570 -4 17 -10 35 -14
40 -4 6 -21 55 -39 110 -43 131 -81 238 -147 416 l-54 146 -10 294 c-5 162
-14 510 -20 774 -49 2210 -52 2296 -85 2475 -77 414 -150 643 -298 935 -80
158 -139 247 -212 320 -267 268 -548 421 -890 485 -97 19 -377 21 -476 5z
m-1094 -855 c244 -357 666 -760 1052 -1003 294 -184 737 -354 908 -347 152 6
172 4 214 -26 50 -36 72 -86 79 -180 12 -175 -97 -345 -269 -423 -35 -15 -76
-31 -90 -34 -21 -6 -31 -19 -53 -79 -109 -295 -365 -582 -669 -748 -57 -31
-79 -48 -83 -67 -9 -34 3 -218 16 -264 23 -82 94 -149 157 -149 l34 0 -6 -47
c-14 -101 -49 -221 -88 -298 -23 -44 -45 -81 -49 -83 -4 -2 -8 -8 -8 -14 0
-11 -57 -93 -116 -164 -64 -80 -209 -218 -292 -280 -79 -58 -122 -97 -122
-110 0 -4 -6 -15 -14 -23 -20 -24 -116 -204 -161 -303 -21 -49 -42 -88 -46
-88 -10 0 -37 118 -48 210 -6 47 -15 168 -21 269 l-11 184 -33 41 c-45 55 -87
142 -120 246 -75 239 -66 203 -101 380 -13 63 -22 116 -21 117 1 1 77 6 169
11 93 6 171 13 174 16 7 7 5 107 -3 147 -4 19 -29 41 -98 87 -186 122 -485
439 -643 683 -135 210 -242 531 -243 729 0 44 -6 64 -30 98 -49 74 -72 147
-72 236 0 67 5 87 31 140 17 34 46 77 65 96 26 27 37 49 46 95 37 185 129 470
200 621 57 122 127 233 183 293 42 43 114 101 127 101 3 0 28 -32 55 -70z
m2429 -5606 c3 -8 2 -12 -4 -9 -6 3 -10 10 -10 16 0 14 7 11 14 -7z"/>
<path d="M7865 10807 c-27 -8 -66 -22 -85 -32 -46 -23 -122 -76 -118 -80 2 -2
46 7 98 21 125 33 290 43 342 21 41 -17 55 -9 39 21 -25 47 -178 74 -276 49z"/>
<path d="M7730 10339 c-30 -6 -76 -8 -102 -6 -51 4 -59 -4 -38 -44 16 -29 -21
-25 -60 7 -17 15 -33 24 -36 21 -11 -10 28 -85 51 -97 21 -11 28 -11 42 2 28
23 114 55 169 63 98 13 234 -27 333 -98 73 -52 73 -52 65 -20 -15 66 -52 111
-118 143 -54 27 -77 32 -157 35 -52 2 -119 -1 -149 -6z"/>
<path d="M7780 10212 c-120 -46 -121 -192 -2 -244 78 -35 200 -7 236 52 22 37
20 92 -4 139 -33 67 -134 89 -230 53z m198 -28 c26 -18 30 -75 7 -94 -38 -31
-105 0 -105 48 0 53 52 78 98 46z"/>
<path d="M9190 10168 c-48 -24 -129 -98 -150 -138 -12 -22 -10 -22 26 6 65 50
91 63 151 79 133 36 273 -21 413 -166 41 -43 75 -69 88 -69 21 0 64 38 84 74
9 16 8 18 -8 11 -34 -14 -63 -17 -91 -10 l-28 7 38 22 c40 25 39 36 -4 36 -37
0 -75 15 -102 41 -36 34 -103 78 -159 104 -73 34 -192 35 -258 3z"/>
<path d="M9257 10025 c-141 -50 -150 -203 -15 -260 48 -20 97 -19 150 2 78 30
118 95 102 166 l-7 32 -18 -42 c-17 -40 -21 -43 -57 -43 -47 0 -72 24 -72 67
0 30 26 63 48 63 28 0 9 18 -25 24 -52 8 -62 7 -106 -9z"/>
<path d="M8156 9202 c-16 -26 193 -282 232 -282 6 0 12 -4 12 -8 0 -11 64 -39
107 -47 84 -16 296 69 438 176 30 22 59 38 64 34 7 -4 8 1 4 11 -5 14 -3 16
12 10 11 -4 16 -4 12 0 -4 4 3 18 15 31 12 13 18 23 15 23 -4 0 -46 -20 -94
-45 -114 -58 -229 -94 -328 -104 -203 -20 -411 50 -431 146 -6 28 -49 70 -58
55z"/>
<path d="M8190 9205 c0 -26 105 -83 195 -105 160 -38 269 -34 480 21 156 40
158 44 17 45 -318 1 -469 7 -507 19 -41 13 -185 29 -185 20z m160 -25 c12 -8
10 -10 -10 -9 -14 0 -43 4 -65 8 l-40 9 50 1 c28 0 57 -4 65 -9z"/>
<path d="M4590 9194 c-469 -77 -809 -305 -987 -658 -66 -132 -100 -242 -135
-446 -27 -158 -10 -553 31 -706 5 -17 6 -36 2 -41 -3 -5 -37 -21 -76 -35 -202
-75 -312 -132 -440 -223 -112 -81 -184 -145 -256 -232 -35 -41 -68 -80 -74
-87 -36 -42 -104 -182 -112 -231 -5 -32 -2 -41 29 -73 20 -20 51 -62 70 -92
70 -110 104 -123 199 -75 62 32 174 140 196 191 l17 39 4 -29 c4 -32 -21 -134
-45 -181 -9 -16 -35 -52 -58 -80 -76 -90 -76 -89 19 -103 138 -20 202 -16 272
17 79 37 191 143 231 217 l31 57 22 -49 c33 -74 50 -124 50 -150 0 -43 21 -36
83 28 135 138 207 374 183 599 -7 62 -8 64 -47 83 -105 51 -210 169 -243 271
-47 150 13 300 135 336 33 10 49 10 94 -5 30 -9 55 -22 55 -28 0 -40 249 75
443 206 105 71 226 161 283 211 7 6 38 33 70 60 163 139 319 290 636 617 35
36 54 48 77 48 46 0 83 -18 122 -60 l37 -39 38 19 c27 14 59 20 109 20 93 0
154 -30 252 -123 170 -162 282 -385 363 -722 28 -118 60 -308 60 -359 0 -116
86 193 115 417 18 131 21 461 5 532 -14 62 -87 208 -157 314 -130 196 -288
319 -474 371 -102 28 -251 27 -365 -1 l-85 -22 -42 41 c-48 46 -150 105 -223
127 -138 43 -355 55 -514 29z"/>
<path d="M4685 7833 c-33 -8 -199 -75 -220 -90 -25 -17 -15 -16 48 2 29 8 119
21 201 30 82 8 151 17 154 20 2 2 -11 13 -29 24 -33 20 -102 26 -154 14z"/>
<path d="M5945 7783 c-30 -6 -65 -25 -65 -35 0 -4 28 -8 63 -8 34 0 107 -5
161 -10 55 -5 101 -8 104 -6 6 7 -149 53 -198 59 -25 3 -54 3 -65 0z"/>
<path d="M4587 7520 c-62 -16 -132 -57 -194 -113 -68 -63 -91 -77 -130 -77
l-28 -1 23 -19 c22 -18 14 -39 -9 -24 -7 4 -10 1 -7 -7 3 -8 17 -18 31 -23 25
-9 33 -4 105 68 104 104 195 151 291 149 63 -1 133 -21 146 -43 3 -5 16 -15
28 -21 l22 -12 -20 24 c-69 82 -169 120 -258 99z"/>
<path d="M5872 7455 c-45 -20 -89 -69 -123 -141 -34 -72 -37 -93 -6 -44 48 76
79 108 127 129 87 38 178 20 279 -54 34 -25 68 -45 75 -45 24 0 30 21 7 27
-21 5 -30 23 -11 23 26 0 6 18 -26 23 -20 3 -52 18 -71 33 -76 58 -182 79
-251 49z"/>
<path d="M4615 7350 c-3 -4 2 -13 10 -20 22 -18 18 -65 -7 -93 -33 -36 -70
-41 -102 -16 -34 27 -40 21 -26 -29 14 -53 68 -99 128 -108 92 -14 180 63 169
146 -7 53 -27 83 -69 103 -40 19 -96 28 -103 17z m158 -107 c2 -5 1 -21 -3
-38 l-6 -30 -5 38 c-4 33 3 50 14 30z"/>
<path d="M5904 7319 c39 -31 33 -98 -10 -118 -37 -16 -52 -14 -79 14 l-25 24
0 -26 c0 -63 68 -123 141 -123 40 0 95 34 114 70 48 92 -14 180 -127 180 l-41
0 27 -21z m133 -131 c-2 -13 -4 -5 -4 17 -1 22 1 32 4 23 2 -10 2 -28 0 -40z"/>
<path d="M5702 6418 c-18 -11 -39 -33 -48 -49 -31 -61 -205 -119 -359 -119
-137 0 -282 41 -392 110 -27 16 -49 25 -51 20 -11 -30 82 -146 154 -192 86
-55 213 -98 291 -98 155 0 350 134 432 297 31 62 28 65 -27 31z"/>
<path d="M906 4003 c-3 -10 -63 -254 -134 -543 -72 -289 -184 -745 -251 -1015
-66 -269 -152 -620 -191 -780 -39 -159 -109 -442 -156 -628 -46 -186 -84 -343
-84 -349 0 -13 154 -11 2005 27 660 13 1443 29 1740 35 297 6 986 19 1530 30
545 11 1332 27 1750 35 418 8 873 17 1010 20 138 3 585 12 995 20 3455 68
3671 73 3676 78 4 4 -149 363 -351 827 -37 85 -91 211 -120 280 -74 174 -112
261 -190 440 -37 85 -89 205 -115 265 -101 235 -262 608 -330 765 -116 265
-126 292 -139 360 -20 107 -14 100 -74 84 -29 -8 -117 -19 -197 -24 -80 -5
-176 -16 -215 -25 -90 -19 -477 -60 -760 -79 -391 -27 -795 -38 -1533 -41
l-724 -2 -89 -114 -90 -113 178 -22 c246 -31 290 -40 348 -69 240 -122 641
-565 1087 -1202 195 -278 646 -979 636 -988 -4 -4 -285 -21 -558 -35 -291 -15
-710 -37 -1120 -60 -201 -11 -453 -24 -560 -30 -107 -5 -359 -19 -560 -30
-400 -22 -1374 -74 -1675 -90 -104 -5 -269 -14 -365 -20 -96 -5 -310 -17 -475
-25 -353 -18 -808 -43 -952 -53 -69 -5 -103 -4 -103 3 0 5 0 537 0 1180 l0
1170 23 17 c26 20 23 22 -74 37 -82 14 -189 14 -299 1 -153 -18 -490 -39 -796
-51 -495 -18 -954 11 -1209 76 -161 42 -286 109 -319 174 -13 24 -11 32 14 84
36 70 68 119 182 269 48 64 88 120 88 123 0 3 -101 5 -224 5 -205 0 -225 -2
-230 -17z"/>
<path d="M4832 3252 c-23 -20 -42 -41 -42 -47 1 -25 64 -132 140 -236 94 -129
106 -143 96 -114 -4 11 -27 85 -52 165 -39 128 -84 253 -95 264 -2 3 -23 -12
-47 -32z"/>
</g>
</svg>
