<?xml version="1.0" encoding="UTF-8"?>
<!DOCTYPE svg PUBLIC "-//W3C//DTD SVG 1.1//EN" "http://www.w3.org/Graphics/SVG/1.1/DTD/svg11.dtd">
<svg xmlns="http://www.w3.org/2000/svg" version="1.1" width="512px" height="512px" style="shape-rendering:geometricPrecision; text-rendering:geometricPrecision; image-rendering:optimizeQuality; fill-rule:evenodd; clip-rule:evenodd" xmlns:xlink="http://www.w3.org/1999/xlink">
<g><path style="opacity:1" fill="#fefefe" d="M -0.5,-0.5 C 170.167,-0.5 340.833,-0.5 511.5,-0.5C 511.5,170.167 511.5,340.833 511.5,511.5C 340.833,511.5 170.167,511.5 -0.5,511.5C -0.5,340.833 -0.5,170.167 -0.5,-0.5 Z"/></g>
<g><path style="opacity:1" fill="#a1a1a1" d="M 193.5,164.5 C 193.167,164.5 192.833,164.5 192.5,164.5C 192.5,146.833 192.5,129.167 192.5,111.5C 153.663,111.168 114.996,111.501 76.5,112.5C 76.5,154.5 76.5,196.5 76.5,238.5C 92.8333,238.5 109.167,238.5 125.5,238.5C 125.5,238.833 125.5,239.167 125.5,239.5C 108.833,239.5 92.1667,239.5 75.5,239.5C 75.5,196.5 75.5,153.5 75.5,110.5C 114.833,110.5 154.167,110.5 193.5,110.5C 193.5,128.5 193.5,146.5 193.5,164.5 Z"/></g>
<g><path style="opacity:1" fill="#000000" d="M 76.5,112.5 C 114.996,111.501 153.663,111.168 192.5,111.5C 192.5,129.167 192.5,146.833 192.5,164.5C 191.503,147.341 191.17,130.008 191.5,112.5C 153.5,112.5 115.5,112.5 77.5,112.5C 77.1667,112.5 76.8333,112.5 76.5,112.5 Z"/></g>
<g><path style="opacity:1" fill="#303030" d="M 77.5,112.5 C 115.5,112.5 153.5,112.5 191.5,112.5C 191.17,130.008 191.503,147.341 192.5,164.5C 187.28,172.227 181.113,179.227 174,185.5C 173.517,186.448 173.351,187.448 173.5,188.5C 170.6,176.3 166.6,164.467 161.5,153C 147.504,152.5 133.504,152.333 119.5,152.5C 119.873,157.321 120.873,161.988 122.5,166.5C 122.755,168.967 123.755,170.967 125.5,172.5C 127.739,183.134 130.739,193.467 134.5,203.5C 134.755,205.967 135.755,207.967 137.5,209.5C 138.815,214.095 139.815,218.761 140.5,223.5C 135.86,228.806 130.86,233.806 125.5,238.5C 109.675,237.504 93.6754,237.17 77.5,237.5C 77.5,195.833 77.5,154.167 77.5,112.5 Z"/></g>
<g><path style="opacity:1" fill="#191919" d="M 76.5,112.5 C 76.8333,112.5 77.1667,112.5 77.5,112.5C 77.5,154.167 77.5,195.833 77.5,237.5C 93.6754,237.17 109.675,237.504 125.5,238.5C 109.167,238.5 92.8333,238.5 76.5,238.5C 76.5,196.5 76.5,154.5 76.5,112.5 Z"/></g>
<g><path style="opacity:1" fill="#710d96" d="M 365.5,216.5 C 368.539,215.722 371.206,214.388 373.5,212.5C 388.431,209.016 403.431,208.682 418.5,211.5C 421.008,213.554 424.008,214.554 427.5,214.5C 454.318,225.319 471.652,244.652 479.5,272.5C 479.671,277.196 480.171,281.863 481,286.5C 481.278,287.416 481.778,288.082 482.5,288.5C 482.5,290.833 482.5,293.167 482.5,295.5C 482.5,301.167 482.5,306.833 482.5,312.5C 439.5,312.5 396.5,312.5 353.5,312.5C 353.232,314.099 353.566,315.432 354.5,316.5C 354.338,318.527 354.505,320.527 355,322.5C 355.383,323.056 355.883,323.389 356.5,323.5C 361.532,337.199 370.866,346.532 384.5,351.5C 389.245,352.999 394.245,353.666 399.5,353.5C 402.833,353.333 406.167,353.167 409.5,353C 411.653,352.901 413.319,352.067 414.5,350.5C 423.648,347.922 431.648,343.255 438.5,336.5C 449.292,341.73 459.959,347.23 470.5,353C 470.957,353.414 471.291,353.914 471.5,354.5C 464.617,364.883 455.95,373.383 445.5,380C 425.962,389.873 405.295,393.373 383.5,390.5C 383.389,389.883 383.056,389.383 382.5,389C 377.642,388.452 372.975,387.286 368.5,385.5C 354.957,380.307 343.624,371.974 334.5,360.5C 333.501,373.149 333.168,385.816 333.5,398.5C 254.5,398.5 175.5,398.5 96.5,398.5C 96.3333,356.165 96.5,313.832 97,271.5C 107.022,261.311 116.522,250.644 125.5,239.5C 125.5,239.167 125.5,238.833 125.5,238.5C 130.86,233.806 135.86,228.806 140.5,223.5C 142.539,224.911 143.539,226.911 143.5,229.5C 144.755,233.437 145.922,237.437 147,241.5C 147.383,242.056 147.883,242.389 148.5,242.5C 158.278,275.004 168.612,307.337 179.5,339.5C 179.903,342.486 180.903,345.152 182.5,347.5C 184.958,357.793 188.292,367.793 192.5,377.5C 192.565,380.428 193.232,383.095 194.5,385.5C 201.264,386.796 208.264,387.463 215.5,387.5C 222.41,387.491 229.244,387.158 236,386.5C 247.217,352.249 258.717,318.249 270.5,284.5C 271.924,282.485 272.59,280.152 272.5,277.5C 273.946,274.746 274.946,271.746 275.5,268.5C 277.088,266.887 278.088,264.887 278.5,262.5C 279.544,257.645 280.877,252.978 282.5,248.5C 284.307,243.632 285.973,238.632 287.5,233.5C 289.721,227.504 291.721,221.504 293.5,215.5C 294.924,213.485 295.59,211.152 295.5,208.5C 296.987,204.884 298.32,201.217 299.5,197.5C 301.341,192.643 303.008,187.643 304.5,182.5C 304.433,181.041 304.766,179.708 305.5,178.5C 307.534,174.071 309.201,169.404 310.5,164.5C 310.5,164.167 310.5,163.833 310.5,163.5C 312.554,160.992 313.554,157.992 313.5,154.5C 314.043,154.44 314.376,154.107 314.5,153.5C 299.672,152.174 285.005,152.174 270.5,153.5C 269.962,155.117 269.629,156.784 269.5,158.5C 267.787,159.635 267.12,161.302 267.5,163.5C 266.191,167.086 264.858,170.752 263.5,174.5C 262.076,176.515 261.41,178.848 261.5,181.5C 258.743,190.837 255.743,200.171 252.5,209.5C 250.787,210.635 250.12,212.302 250.5,214.5C 248.899,217.55 247.899,220.884 247.5,224.5C 245.345,226.617 244.345,229.284 244.5,232.5C 243.13,235.619 242.13,238.952 241.5,242.5C 240.883,242.611 240.383,242.944 240,243.5C 238.673,247.808 237.507,252.141 236.5,256.5C 233.384,263.516 231.051,270.849 229.5,278.5C 227.787,279.635 227.12,281.302 227.5,283.5C 225.899,286.55 224.899,289.884 224.5,293.5C 222.345,295.617 221.345,298.284 221.5,301.5C 220.191,305.086 218.858,308.752 217.5,312.5C 216.71,313.609 216.21,314.942 216,316.5C 215.768,315.263 215.268,314.263 214.5,313.5C 208.825,296.117 203.158,278.784 197.5,261.5C 197.655,258.284 196.655,255.617 194.5,253.5C 187.624,231.779 180.624,210.112 173.5,188.5C 173.351,187.448 173.517,186.448 174,185.5C 181.113,179.227 187.28,172.227 192.5,164.5C 192.833,164.5 193.167,164.5 193.5,164.5C 200.023,157.811 206.357,150.978 212.5,144C 252.832,143.5 293.165,143.333 333.5,143.5C 333.333,175.835 333.5,208.168 334,240.5C 342.331,229.671 352.831,221.671 365.5,216.5 Z"/></g>
<g><path style="opacity:1" fill="#aa90bc" d="M 270.5,153.5 C 285.005,152.174 299.672,152.174 314.5,153.5C 314.376,154.107 314.043,154.44 313.5,154.5C 299.343,153.504 285.01,153.171 270.5,153.5 Z"/></g>
<g><path style="opacity:1" fill="#fcfcfd" d="M 173.5,188.5 C 180.624,210.112 187.624,231.779 194.5,253.5C 195.129,256.397 196.129,259.064 197.5,261.5C 203.158,278.784 208.825,296.117 214.5,313.5C 214.5,314.833 214.5,316.167 214.5,317.5C 215.5,317.5 216.5,317.5 217.5,317.5C 217.5,315.833 217.5,314.167 217.5,312.5C 218.858,308.752 220.191,305.086 221.5,301.5C 222.871,299.064 223.871,296.397 224.5,293.5C 224.899,289.884 225.899,286.55 227.5,283.5C 228.537,282.07 229.204,280.403 229.5,278.5C 231.051,270.849 233.384,263.516 236.5,256.5C 237.117,256.389 237.617,256.056 238,255.5C 239.106,251.132 240.272,246.799 241.5,242.5C 242.13,238.952 243.13,235.619 244.5,232.5C 245.871,230.064 246.871,227.397 247.5,224.5C 247.899,220.884 248.899,217.55 250.5,214.5C 251.537,213.07 252.204,211.403 252.5,209.5C 255.743,200.171 258.743,190.837 261.5,181.5C 262.924,179.485 263.59,177.152 263.5,174.5C 264.858,170.752 266.191,167.086 267.5,163.5C 268.537,162.07 269.204,160.403 269.5,158.5C 269.629,156.784 269.962,155.117 270.5,153.5C 285.01,153.171 299.343,153.504 313.5,154.5C 312.054,157.254 311.054,160.254 310.5,163.5C 310.5,163.833 310.5,164.167 310.5,164.5C 307.7,168.552 306.033,173.219 305.5,178.5C 304.766,179.708 304.433,181.041 304.5,182.5C 301.496,186.843 299.83,191.843 299.5,197.5C 298.32,201.217 296.987,204.884 295.5,208.5C 294.076,210.515 293.41,212.848 293.5,215.5C 291.721,221.504 289.721,227.504 287.5,233.5C 286.503,233.47 285.836,233.97 285.5,235C 284.102,239.425 283.102,243.925 282.5,248.5C 280.877,252.978 279.544,257.645 278.5,262.5C 276.621,263.895 275.621,265.895 275.5,268.5C 274.946,271.746 273.946,274.746 272.5,277.5C 271.076,279.515 270.41,281.848 270.5,284.5C 258.717,318.249 247.217,352.249 236,386.5C 229.244,387.158 222.41,387.491 215.5,387.5C 208.264,387.463 201.264,386.796 194.5,385.5C 194.706,382.505 194.04,379.838 192.5,377.5C 188.292,367.793 184.958,357.793 182.5,347.5C 182.655,344.284 181.655,341.617 179.5,339.5C 168.612,307.337 158.278,275.004 148.5,242.5C 147.766,237.603 146.099,233.27 143.5,229.5C 143.539,226.911 142.539,224.911 140.5,223.5C 139.815,218.761 138.815,214.095 137.5,209.5C 137.245,207.033 136.245,205.033 134.5,203.5C 130.739,193.467 127.739,183.134 125.5,172.5C 125.245,170.033 124.245,168.033 122.5,166.5C 120.873,161.988 119.873,157.321 119.5,152.5C 133.504,152.333 147.504,152.5 161.5,153C 166.6,164.467 170.6,176.3 173.5,188.5 Z"/></g>
<g><path style="opacity:1" fill="#a57fba" d="M 269.5,158.5 C 269.204,160.403 268.537,162.07 267.5,163.5C 267.12,161.302 267.787,159.635 269.5,158.5 Z"/></g>
<g><path style="opacity:1" fill="#aa86bd" d="M 313.5,154.5 C 313.554,157.992 312.554,160.992 310.5,163.5C 311.054,160.254 312.054,157.254 313.5,154.5 Z"/></g>
<g><path style="opacity:1" fill="#9b9b9b" d="M 122.5,166.5 C 124.245,168.033 125.245,170.033 125.5,172.5C 123.755,170.967 122.755,168.967 122.5,166.5 Z"/></g>
<g><path style="opacity:1" fill="#cdbad8" d="M 310.5,164.5 C 309.201,169.404 307.534,174.071 305.5,178.5C 306.033,173.219 307.7,168.552 310.5,164.5 Z"/></g>
<g><path style="opacity:1" fill="#a883bc" d="M 263.5,174.5 C 263.59,177.152 262.924,179.485 261.5,181.5C 261.41,178.848 262.076,176.515 263.5,174.5 Z"/></g>
<g><path style="opacity:1" fill="#c9b4d5" d="M 304.5,182.5 C 303.008,187.643 301.341,192.643 299.5,197.5C 299.83,191.843 301.496,186.843 304.5,182.5 Z"/></g>
<g><path style="opacity:1" fill="#888888" d="M 134.5,203.5 C 136.245,205.033 137.245,207.033 137.5,209.5C 135.755,207.967 134.755,205.967 134.5,203.5 Z"/></g>
<g><path style="opacity:1" fill="#a47eb9" d="M 252.5,209.5 C 252.204,211.403 251.537,213.07 250.5,214.5C 250.12,212.302 250.787,210.635 252.5,209.5 Z"/></g>
<g><path style="opacity:1" fill="#ac8abf" d="M 295.5,208.5 C 295.59,211.152 294.924,213.485 293.5,215.5C 293.41,212.848 294.076,210.515 295.5,208.5 Z"/></g>
<g><path style="opacity:1" fill="#996ab1" d="M 418.5,211.5 C 421.746,212.054 424.746,213.054 427.5,214.5C 424.008,214.554 421.008,213.554 418.5,211.5 Z"/></g>
<g><path style="opacity:1" fill="#b496c5" d="M 373.5,212.5 C 371.206,214.388 368.539,215.722 365.5,216.5C 367.531,214.245 370.198,212.912 373.5,212.5 Z"/></g>
<g><path style="opacity:1" fill="#a279b7" d="M 247.5,224.5 C 246.871,227.397 245.871,230.064 244.5,232.5C 244.345,229.284 245.345,226.617 247.5,224.5 Z"/></g>
<g><path style="opacity:1" fill="#cebbd8" d="M 143.5,229.5 C 146.099,233.27 147.766,237.603 148.5,242.5C 147.883,242.389 147.383,242.056 147,241.5C 145.922,237.437 144.755,233.437 143.5,229.5 Z"/></g>
<g><path style="opacity:1" fill="#cfbcd9" d="M 287.5,233.5 C 285.973,238.632 284.307,243.632 282.5,248.5C 283.102,243.925 284.102,239.425 285.5,235C 285.836,233.97 286.503,233.47 287.5,233.5 Z"/></g>
<g><path style="opacity:1" fill="#fcfbfd" d="M 441.5,276.5 C 413.338,277.498 385.005,277.831 356.5,277.5C 356.5,277.167 356.5,276.833 356.5,276.5C 368.26,249.948 388.26,240.782 416.5,249C 429.247,254.243 437.58,263.409 441.5,276.5 Z"/></g>
<g><path style="opacity:1" fill="#c2a8cf" d="M 241.5,242.5 C 240.272,246.799 239.106,251.132 238,255.5C 237.617,256.056 237.117,256.389 236.5,256.5C 237.507,252.141 238.673,247.808 240,243.5C 240.383,242.944 240.883,242.611 241.5,242.5 Z"/></g>
<g><path style="opacity:1" fill="#a178b7" d="M 194.5,253.5 C 196.655,255.617 197.655,258.284 197.5,261.5C 196.129,259.064 195.129,256.397 194.5,253.5 Z"/></g>
<g><path style="opacity:1" fill="#9b6cb3" d="M 278.5,262.5 C 278.088,264.887 277.088,266.887 275.5,268.5C 275.621,265.895 276.621,263.895 278.5,262.5 Z"/></g>
<g><path style="opacity:1" fill="#ded1e6" d="M 441.5,276.5 C 442.338,276.842 442.672,277.508 442.5,278.5C 413.662,278.831 384.995,278.498 356.5,277.5C 385.005,277.831 413.338,277.498 441.5,276.5 Z"/></g>
<g><path style="opacity:1" fill="#9e73b5" d="M 356.5,276.5 C 356.5,276.833 356.5,277.167 356.5,277.5C 384.995,278.498 413.662,278.831 442.5,278.5C 413.671,279.498 384.671,279.831 355.5,279.5C 355.263,278.209 355.596,277.209 356.5,276.5 Z"/></g>
<g><path style="opacity:1" fill="#a47eb9" d="M 229.5,278.5 C 229.204,280.403 228.537,282.07 227.5,283.5C 227.12,281.302 227.787,279.635 229.5,278.5 Z"/></g>
<g><path style="opacity:1" fill="#ac8bbf" d="M 272.5,277.5 C 272.59,280.152 271.924,282.485 270.5,284.5C 270.41,281.848 271.076,279.515 272.5,277.5 Z"/></g>
<g><path style="opacity:1" fill="#b292c4" d="M 479.5,272.5 C 481.129,277.591 482.129,282.924 482.5,288.5C 481.778,288.082 481.278,287.416 481,286.5C 480.171,281.863 479.671,277.196 479.5,272.5 Z"/></g>
<g><path style="opacity:1" fill="#a278b7" d="M 224.5,293.5 C 223.871,296.397 222.871,299.064 221.5,301.5C 221.345,298.284 222.345,295.617 224.5,293.5 Z"/></g>
<g><path style="opacity:1" fill="#c8b9d2" d="M 482.5,295.5 C 483.49,301.31 483.823,307.31 483.5,313.5C 440.5,313.5 397.5,313.5 354.5,313.5C 354.5,314.5 354.5,315.5 354.5,316.5C 353.566,315.432 353.232,314.099 353.5,312.5C 396.5,312.5 439.5,312.5 482.5,312.5C 482.5,306.833 482.5,301.167 482.5,295.5 Z"/></g>
<g><path style="opacity:1" fill="#bca1cb" d="M 217.5,312.5 C 217.5,314.167 217.5,315.833 217.5,317.5C 216.5,317.5 215.5,317.5 214.5,317.5C 214.5,316.167 214.5,314.833 214.5,313.5C 215.268,314.263 215.768,315.263 216,316.5C 216.21,314.942 216.71,313.609 217.5,312.5 Z"/></g>
<g><path style="opacity:1" fill="#a074b6" d="M 354.5,316.5 C 355.407,318.657 356.073,320.99 356.5,323.5C 355.883,323.389 355.383,323.056 355,322.5C 354.505,320.527 354.338,318.527 354.5,316.5 Z"/></g>
<g><path style="opacity:1" fill="#ba9ec9" d="M 179.5,339.5 C 181.655,341.617 182.655,344.284 182.5,347.5C 180.903,345.152 179.903,342.486 179.5,339.5 Z"/></g>
<g><path style="opacity:1" fill="#b499c5" d="M 414.5,350.5 C 413.319,352.067 411.653,352.901 409.5,353C 406.167,353.167 402.833,353.333 399.5,353.5C 394.245,353.666 389.245,352.999 384.5,351.5C 394.59,353.159 404.59,352.826 414.5,350.5 Z"/></g>
<g><path style="opacity:1" fill="#af8fc1" d="M 192.5,377.5 C 194.04,379.838 194.706,382.505 194.5,385.5C 193.232,383.095 192.565,380.428 192.5,377.5 Z"/></g>
<g><path style="opacity:1" fill="#c6b1d2" d="M 368.5,385.5 C 372.975,387.286 377.642,388.452 382.5,389C 383.056,389.383 383.389,389.883 383.5,390.5C 379.473,389.861 375.473,389.028 371.5,388C 369.881,387.764 368.881,386.931 368.5,385.5 Z"/></g>
</svg>
